<svg id="visual" viewBox="0 0 900 600" width="900" height="600" xmlns="http://www.w3.org/2000/svg" xmlns:xlink="http://www.w3.org/1999/xlink" version="1.1"><path d="M0 115L56 127L113 115L169 109L225 157L281 61L338 127L394 49L450 145L506 49L563 67L619 85L675 55L731 91L788 115L844 145L900 151L900 0L844 0L788 0L731 0L675 0L619 0L563 0L506 0L450 0L394 0L338 0L281 0L225 0L169 0L113 0L56 0L0 0Z" fill="#00cc8e"></path><path d="M0 163L56 175L113 163L169 187L225 253L281 133L338 175L394 235L450 211L506 163L563 127L619 169L675 121L731 133L788 181L844 187L900 217L900 149L844 143L788 113L731 89L675 53L619 83L563 65L506 47L450 143L394 47L338 125L281 59L225 155L169 107L113 113L56 125L0 113Z" fill="#00b388"></path><path d="M0 445L56 301L113 265L169 445L225 523L281 217L338 457L394 361L450 421L506 499L563 487L619 301L675 319L731 289L788 241L844 343L900 373L900 215L844 185L788 179L731 131L675 119L619 167L563 125L506 161L450 209L394 233L338 173L281 131L225 251L169 185L113 161L56 173L0 161Z" fill="#009b7f"></path><path d="M0 601L56 601L113 601L169 601L225 601L281 601L338 601L394 601L450 601L506 601L563 601L619 601L675 601L731 601L788 601L844 601L900 601L900 371L844 341L788 239L731 287L675 317L619 299L563 485L506 497L450 419L394 359L338 455L281 215L225 521L169 443L113 263L56 299L0 443Z" fill="#038373"></path></svg>